<svg xmlns="http://www.w3.org/2000/svg" viewBox="0 0 512 512" width="512" height="512">
  <defs>
    <!-- Original Fiery Red to Indigo Gradient matching Screenshot_20261007_070848_Chrome.jpg -->
    <linearGradient id="brandGrad" x1="0%" y1="0%" x2="100%" y2="100%">
      <stop offset="0%" stop-color="#f43f5e" />
      <stop offset="38%" stop-color="#ef4444" />
      <stop offset="72%" stop-color="#a855f7" />
      <stop offset="100%" stop-color="#6366f1" />
    </linearGradient>

    <!-- Deep Ambient Glow around the Squircle in fiery Rose-Red matching Screenshot_20261007_070848_Chrome.jpg -->
    <filter id="squircleGlow" x="-25%" y="-25%" width="150%" height="150%">
      <feDropShadow dx="0" dy="16" stdDeviation="22" flood-color="#f43f5e" flood-opacity="0.45" />
      <feDropShadow dx="0" dy="4" stdDeviation="8" flood-color="#000000" flood-opacity="0.3" />
    </filter>

    <filter id="wrenchShadow" x="-30%" y="-30%" width="160%" height="160%">
      <feDropShadow dx="0" dy="5" stdDeviation="5" flood-color="#000000" flood-opacity="0.3" />
      <feDropShadow dx="0" dy="2" stdDeviation="2" flood-color="#000000" flood-opacity="0.18" />
    </filter>
  </defs>

  <!-- Glowing Squircle Badge matching header preview (Screenshot_20261007_070848_Chrome.jpg) -->
  <g filter="url(#squircleGlow)">
    <rect 
      x="24" 
      y="24" 
      width="464" 
      height="464" 
      rx="106" 
      fill="url(#brandGrad)" 
      stroke="rgba(255, 255, 255, 0.28)" 
      stroke-width="4" 
    />
  </g>

  <!-- White Wrench centered at (256, 256) -->
  <g transform="translate(118, 118) scale(11.5)" filter="url(#wrenchShadow)">
    <path 
      d="M14.7 6.3a1 1 0 0 0 0 1.4l1.6 1.6a1 1 0 0 0 1.4 0l3.106-3.105c.32-.322.863-.22.983.218a6 6 0 0 1-8.259 7.057l-7.91 7.91a1 1 0 0 1-2.999-3l7.91-7.91a6 6 0 0 1 7.057-8.259c.438.12.54.662.219.984z" 
      fill="none" 
      stroke="#ffffff" 
      stroke-width="2.35" 
      stroke-linecap="round" 
      stroke-linejoin="round" 
    />
  </g>
</svg>