<svg xmlns="http://www.w3.org/2000/svg" viewBox="0 0 1200 630" width="1200" height="630">
  <defs>
    <!-- Background Gradient -->
    <linearGradient id="ogBg" x1="0%" y1="0%" x2="100%" y2="100%">
      <stop offset="0%" stop-color="#070c16" />
      <stop offset="50%" stop-color="#0f172a" />
      <stop offset="100%" stop-color="#0a1329" />
    </linearGradient>

    <!-- Key Badge Gradient -->
    <linearGradient id="ogKeyBadgeGrad" x1="0%" y1="0%" x2="100%" y2="100%">
      <stop offset="0%" stop-color="#f43f5e" />
      <stop offset="38%" stop-color="#ef4444" />
      <stop offset="72%" stop-color="#a855f7" />
      <stop offset="100%" stop-color="#6366f1" />
    </linearGradient>

    <!-- Glow Filter for the Universal Key -->
    <filter id="ogKeyGlow" x="-30%" y="-30%" width="160%" height="160%">
      <feDropShadow dx="0" dy="16" stdDeviation="28" flood-color="#f43f5e" flood-opacity="0.55" />
      <feDropShadow dx="0" dy="6" stdDeviation="12" flood-color="#000000" flood-opacity="0.7" />
    </filter>

    <filter id="ogTextShadow" x="-20%" y="-20%" width="140%" height="140%">
      <feDropShadow dx="0" dy="4" stdDeviation="6" flood-color="#000000" flood-opacity="0.7" />
    </filter>

    <!-- Ambient Glow Orbs -->
    <radialGradient id="orbRed" cx="50%" cy="50%" r="50%">
      <stop offset="0%" stop-color="#f43f5e" stop-opacity="0.18" />
      <stop offset="100%" stop-color="#0f172a" stop-opacity="0" />
    </radialGradient>
    <radialGradient id="orbBlue" cx="50%" cy="50%" r="50%">
      <stop offset="0%" stop-color="#38bdf8" stop-opacity="0.15" />
      <stop offset="100%" stop-color="#0f172a" stop-opacity="0" />
    </radialGradient>
  </defs>

  <!-- Background -->
  <rect width="1200" height="630" fill="url(#ogBg)" />

  <!-- Ambient Glow Orbs -->
  <circle cx="280" cy="315" r="380" fill="url(#orbRed)" />
  <circle cx="1050" cy="200" r="350" fill="url(#orbBlue)" />

  <!-- Subtle Blueprint Grid Lines -->
  <g opacity="0.05" stroke="#38bdf8" stroke-width="1">
    <line x1="0" y1="126" x2="1200" y2="126" />
    <line x1="0" y1="252" x2="1200" y2="252" />
    <line x1="0" y1="378" x2="1200" y2="378" />
    <line x1="0" y1="504" x2="1200" y2="504" />
    <line x1="300" y1="0" x2="300" y2="630" />
    <line x1="600" y1="0" x2="600" y2="630" />
    <line x1="900" y1="0" x2="900" y2="630" />
  </g>

  <!-- LEFT: The Iconic Universal Key Squircle Badge (200x200) -->
  <g transform="translate(100, 215)" filter="url(#ogKeyGlow)">
    <rect 
      x="0" 
      y="0" 
      width="200" 
      height="200" 
      rx="48" 
      fill="url(#ogKeyBadgeGrad)" 
      stroke="rgba(255, 255, 255, 0.35)" 
      stroke-width="3.5" 
    />
    <!-- Wrench icon centered inside 200x200 (scale 4.8, centered at 100, 100) -->
    <g transform="translate(42.4, 42.4) scale(4.8)">
      <path 
        d="M14.7 6.3a1 1 0 0 0 0 1.4l1.6 1.6a1 1 0 0 0 1.4 0l3.106-3.105c.32-.322.863-.22.983.218a6 6 0 0 1-8.259 7.057l-7.91 7.91a1 1 0 0 1-2.999-3l7.91-7.91a6 6 0 0 1 7.057-8.259c.438.12.54.662.219.984z" 
        fill="none" 
        stroke="#ffffff" 
        stroke-width="2.35" 
        stroke-linecap="round" 
        stroke-linejoin="round" 
      />
    </g>
  </g>

  <!-- RIGHT: Typography & Feature Highlights -->
  <g transform="translate(350, 0)">
    <!-- Small Category Pill -->
    <g transform="translate(0, 155)">
      <rect x="0" y="0" width="220" height="36" rx="18" fill="rgba(56, 189, 248, 0.12)" stroke="rgba(56, 189, 248, 0.35)" stroke-width="1.2" />
      <text x="110" y="24" text-anchor="middle" font-family="system-ui, -apple-system, sans-serif" font-size="13" font-weight="700" fill="#38bdf8" letter-spacing="1">
        СЕРВИС №1 ПО САНТЕХНИКЕ
      </text>
    </g>

    <!-- Main Title: СантехПро -->
    <g transform="translate(0, 260)" filter="url(#ogTextShadow)">
      <text font-family="system-ui, -apple-system, 'SF Pro Display', Roboto, sans-serif" font-size="76" font-weight="900" letter-spacing="-1">
        <tspan fill="#ef4444">Сантех</tspan><tspan fill="#38bdf8">Про</tspan>
      </text>
    </g>

    <!-- Subtitle: Твой карманный помощник по сантехнике -->
    <text x="0" y="320" font-family="system-ui, -apple-system, sans-serif" font-size="28" font-weight="600" fill="#f8fafc">
      Твой карманный помощник по сантехнике
    </text>

    <!-- Description -->
    <text x="0" y="365" font-family="system-ui, -apple-system, sans-serif" font-size="19" font-weight="400" fill="#94a3b8">
      Поиск проверенных мастеров по РФ и СНГ, электронные сметы и договоры,
    </text>
    <text x="0" y="395" font-family="system-ui, -apple-system, sans-serif" font-size="19" font-weight="400" fill="#94a3b8">
      калькуляторы материалов и 100+ пошаговых видеоинструкций.
    </text>

    <!-- 4 Feature Pills -->
    <g transform="translate(0, 440)">
      <!-- Pill 1 -->
      <g transform="translate(0, 0)">
        <rect width="180" height="42" rx="12" fill="#1e293b" stroke="#334155" stroke-width="1" />
        <text x="90" y="26" text-anchor="middle" font-family="system-ui, sans-serif" font-size="14" font-weight="700" fill="#e2e8f0">⚡ Электронные сметы</text>
      </g>
      <!-- Pill 2 -->
      <g transform="translate(195, 0)">
        <rect width="185" height="42" rx="12" fill="#1e293b" stroke="#334155" stroke-width="1" />
        <text x="92" y="26" text-anchor="middle" font-family="system-ui, sans-serif" font-size="14" font-weight="700" fill="#e2e8f0">🔍 Поиск специалистов</text>
      </g>
      <!-- Pill 3 -->
      <g transform="translate(395, 0)">
        <rect width="195" height="42" rx="12" fill="#1e293b" stroke="#334155" stroke-width="1" />
        <text x="97" y="26" text-anchor="middle" font-family="system-ui, sans-serif" font-size="14" font-weight="700" fill="#e2e8f0">📋 Договоры подряда</text>
      </g>
      <!-- Pill 4 -->
      <g transform="translate(605, 0)">
        <rect width="165" height="42" rx="12" fill="#1e293b" stroke="#334155" stroke-width="1" />
        <text x="82" y="26" text-anchor="middle" font-family="system-ui, sans-serif" font-size="14" font-weight="700" fill="#e2e8f0">📱 PWA Приложение</text>
      </g>
    </g>

    <!-- Web Link -->
    <text x="0" y="535" font-family="system-ui, sans-serif" font-size="18" font-weight="800" fill="#38bdf8" letter-spacing="0.5">
      santehpro.info
    </text>
  </g>
</svg>