<svg xmlns="http://www.w3.org/2000/svg" viewBox="0 0 512 512" width="512" height="512">
  <defs>
    <!-- Original Fiery Red to Indigo Gradient matching Screenshot_20261007_070848_Chrome.jpg -->
    <linearGradient id="brandGrad" x1="0%" y1="0%" x2="100%" y2="100%">
      <stop offset="0%" stop-color="#f43f5e" />
      <stop offset="38%" stop-color="#ef4444" />
      <stop offset="72%" stop-color="#a855f7" />
      <stop offset="100%" stop-color="#6366f1" />
    </linearGradient>

    <!-- Clean Shadow for Wrench -->
    <filter id="wrenchShadow" x="-30%" y="-30%" width="160%" height="160%">
      <feDropShadow dx="0" dy="6" stdDeviation="6" flood-color="#000000" flood-opacity="0.32" />
      <feDropShadow dx="0" dy="2" stdDeviation="2" flood-color="#000000" flood-opacity="0.2" />
    </filter>
  </defs>

  <!-- Full-bleed background covering ALL 512x512 pixels with NO black padding or borders -->
  <rect width="512" height="512" fill="url(#brandGrad)" />

  <!-- Crisp White Wrench perfectly centered at (256, 256) inside Android 80% Safe Zone -->
  <!-- Scale 12.0 gives width ~269px, well within 410px safe circle -->
  <g transform="translate(112, 112) scale(12.0)" filter="url(#wrenchShadow)">
    <path 
      d="M14.7 6.3a1 1 0 0 0 0 1.4l1.6 1.6a1 1 0 0 0 1.4 0l3.106-3.105c.32-.322.863-.22.983.218a6 6 0 0 1-8.259 7.057l-7.91 7.91a1 1 0 0 1-2.999-3l7.91-7.91a6 6 0 0 1 7.057-8.259c.438.12.54.662.219.984z" 
      fill="none" 
      stroke="#ffffff" 
      stroke-width="2.35" 
      stroke-linecap="round" 
      stroke-linejoin="round" 
    />
  </g>
</svg>